# xmcd
#
# Track frame offsets:
#	150
#	21336
#	38007
#	59168
#	78730
#	91317
#	109612
#
# Disc length: 1762 seconds
#
# Revision: 1
# Processed by: cddbd v1.5.2PL0 Copyright (c) Steve Scherf et al.
# Submitted via: audiograbber 1.83.01
#
DISCID=5706e007
DTITLE=The Wyatts - The Continuing Saga Of The Wyatts Volume One
DYEAR=2007
DGENRE=Country
TTITLE0=I Should Have Been
TTITLE1=Won't Take Long
TTITLE2=Broke Your Heart
TTITLE3=I'm Not Your Savior
TTITLE4=Merry Christmas Darlin'
TTITLE5=The Pick Up
TTITLE6=Hey There, Bartender
EXTD=
EXTT0=
EXTT1=
EXTT2=
EXTT3=
EXTT4=
EXTT5=
EXTT6=
PLAYORDER=
